<?xml version="1.0" encoding="iso-8859-1"?>
<!-- Generator: Adobe Illustrator 17.1.0, SVG Export Plug-In . SVG Version: 6.00 Build 0)  -->
<!DOCTYPE svg PUBLIC "-//W3C//DTD SVG 1.1//EN" "http://www.w3.org/Graphics/SVG/1.1/DTD/svg11.dtd">
<svg xmlns="http://www.w3.org/2000/svg" xmlns:xlink="http://www.w3.org/1999/xlink" version="1.1" id="Capa_1" x="0px" y="0px" viewBox="0 0 202.789 202.789" style="enable-background:new 0 0 202.789 202.789;" xml:space="preserve" width="512px" height="512px">
<path d="M194.822,193.005c-4.222-13.207-15.673-46.402-30.789-69.358c-12.259-18.618-27.009-33.074-36.161-41.161  c2.442-4.363,7.288-13.51,10.898-23.438c4.935-13.573,6.979-33.945,7.108-35.269c0-0.003,0.001-0.006,0.001-0.009  c0.001-0.012,0.003-0.035,0.004-0.044c0.005-0.055,0.002-0.109,0.006-0.164c0.013-0.184,0.028-0.367,0.028-0.554V7.5  c0-4.142-3.357-7.5-7.5-7.5s-7.5,3.358-7.5,7.5v9.682c-4.225,1.296-10.148,3.539-16.41,7.251  c-5.456,3.233-9.894,6.932-13.112,10.006c-3.219-3.074-7.656-6.772-13.112-10.006c-6.262-3.711-12.186-5.954-16.41-7.25V7.5  c0-4.142-3.358-7.5-7.5-7.5s-7.5,3.358-7.5,7.5v15.508c0,0.2,0.015,0.396,0.03,0.593c0.003,0.042,0.001,0.083,0.005,0.125  c0.001,0.006,0.002,0.024,0.003,0.033c0.001,0.01,0.002,0.02,0.003,0.03c0.137,1.41,2.182,21.718,7.106,35.26  c3.611,9.929,8.456,19.076,10.898,23.438c-9.151,8.087-23.901,22.543-36.161,41.16c-15.116,22.956-26.567,56.151-30.79,69.358  c-0.729,2.281-0.325,4.772,1.087,6.707c1.412,1.934,3.663,3.077,6.057,3.077h172.567c2.395,0,4.646-1.144,6.058-3.077  C195.147,197.778,195.551,195.286,194.822,193.005z" fill="#c11d17"/>
<g>
</g>
<g>
</g>
<g>
</g>
<g>
</g>
<g>
</g>
<g>
</g>
<g>
</g>
<g>
</g>
<g>
</g>
<g>
</g>
<g>
</g>
<g>
</g>
<g>
</g>
<g>
</g>
<g>
</g>
</svg>
